:SAMPLES-PER-SECOND 30
:FULLY-SPECIFIED
:DEGREES
152
root  28.0324 38.9999 9.79687 -177.201 62.755 -172.595
RightUpLeg  -10.7965 -23.1929 0.891156
RightLeg  28.0392 2.92456 1.41817
RightFoot  -9.52497 -0.0314714 -2.08492
RightToes  0.00048216 0.542163 -0.142577
Spine  14.5632 -1.6796 9.97065
Spine1  11.4223 0.0528453 -0.490854
HEad  5.75555 14.8253 -10.9097
LeftShoulder1  7.7038 -11.9292 -43.4223
LeftArm  -8.17749 13.4179 -27.5873
LeftForeArm  24.7816 -73.1942 -39.0888
LeftHand  -0.25398 0.0180481 5.50724
RightShoulder  4.33158 8.2933 30.7653
RightArm  -6.22341 -21.6448 18.4556
RightForeArm  51.1587 75.7819 119.386
RightHand  1.08862 -11.523 -21.0867
LeftUpLeg  -20.8607 16.146 4.82259
LeftLeg  60.2844 2.43644 5.19382
LeftFoot  -0.0457748 0.11093 -1.14417
LeftToes  1.06246e-005 4.65855e-005 -8.18505e-006
153
root  29.6735 39.3426 9.18381 -177.718 62.2078 -172.609
RightUpLeg  -5.08614 -23.7257 -0.601312
RightLeg  24.6163 3.25192 1.86874
RightFoot  -10.3675 -0.0618009 -0.987723
RightToes  0.00048216 0.542163 -0.142577
Spine  14.4691 -1.24427 10.0912
Spine1  11.2761 0.64967 -1.50037
HEad  7.02839 14.6889 -11.0722
LeftShoulder1  7.6441 -11.8489 -43.3043
LeftArm  -9.06917 14.8123 -27.3924
LeftForeArm  26.2232 -73.7124 -40.6869
LeftHand  -0.25398 0.0180481 5.50724
RightShoulder  4.27699 8.15238 30.7407
RightArm  -6.01253 -20.8654 19.616
RightForeArm  50.0064 76.0819 117.189
RightHand  1.1163 -11.7489 -20.8683
LeftUpLeg  -23.1004 18.124 3.2937
LeftLeg  51.8919 2.68923 4.13522
LeftFoot  -2.20258 0.177295 -2.0616
LeftToes  1.06246e-005 4.65855e-005 -8.18505e-006
154
root  31.2887 39.4783 8.52959 -177.399 61.291 -171.577
RightUpLeg  0.38521 -21.2544 -1.53513
RightLeg  21.7612 -0.00136964 2.30927
RightFoot  -11.5314 -0.0795579 -0.442957
RightToes  0.00048216 0.542163 -0.142577
Spine  14.2502 -0.927734 10.8382
Spine1  11.3457 1.13904 -2.20112
HEad  8.31618 14.5316 -11.3905
LeftShoulder1  7.59387 -11.7893 -43.1802
LeftArm  -9.64073 15.8125 -27.1782
LeftForeArm  27.3726 -74.1247 -42.0949
LeftHand  -0.25398 0.0180481 5.50724
RightShoulder  4.27802 8.1147 30.8697
RightArm  -5.88843 -20.1856 20.3505
RightForeArm  48.7531 76.3511 114.991
RightHand  1.19808 -12.3727 -20.3851
LeftUpLeg  -24.0539 20.5313 2.17515
LeftLeg  41.19 2.7943 2.98841
LeftFoot  -3.13271 0.241625 -3.11907
LeftToes  1.06246e-005 4.65855e-005 -8.18505e-006
155
root  32.8828 39.4452 7.82147 -176.473 60.525 -169.889
RightUpLeg  5.46732 -16.2116 -1.06406
RightLeg  18.7772 -5.78354 2.587
RightFoot  -12.9739 -0.0898967 -0.175564
RightToes  0.00048216 0.542163 -0.142577
Spine  13.9008 -0.590861 12.1416
Spine1  11.625 1.78732 -3.09032
HEad  9.24269 14.2066 -11.5132
LeftShoulder1  7.55152 -11.7496 -43.0433
LeftArm  -10.202 16.5006 -27.0686
LeftForeArm  28.8219 -74.5696 -43.7117
LeftHand  -0.25398 0.0180481 5.50724
RightShoulder  4.34967 8.19892 31.2205
RightArm  -5.72569 -19.4344 20.4769
RightForeArm  47.0844 76.5099 113.448
RightHand  1.28088 -12.813 -20.4655
LeftUpLeg  -24.0161 24.9498 0.522091
LeftLeg  28.3379 1.77282 1.91698
LeftFoot  -3.14481 0.247817 -3.19492
LeftToes  1.06246e-005 4.65855e-005 -8.18505e-006
156
root  34.4541 39.3159 7.09039 -175.951 60.0667 -168.75
RightUpLeg  10.516 -11.1541 0.158606
RightLeg  15.0105 -11.0098 2.85933
RightFoot  -14.3786 -0.0726405 0.904916
RightToes  0.00048216 0.542163 -0.142577
Spine  13.4957 -0.220726 13.1276
Spine1  12.3656 2.65401 -4.43379
HEad  9.89149 13.8367 -11.3378
LeftShoulder1  7.50405 -11.736 -42.7962
LeftArm  -10.7488 16.9889 -27.0777
LeftForeArm  30.6199 -75.0388 -45.5268
LeftHand  -0.25398 0.0180481 5.50724
RightShoulder  4.43213 8.29001 31.6361
RightArm  -5.40518 -18.3552 20.4224
RightForeArm  43.933 76.7136 111.12
RightHand  1.31585 -12.8073 -20.9922
LeftUpLeg  -22.3197 25.6008 0.426779
LeftLeg  13.4716 5.74282 -0.813035
LeftFoot  -2.39207 0.254819 -3.0605
LeftToes  1.06246e-005 4.65855e-005 -8.18505e-006
157
root  36.0508 39.0001 6.30314 -175.574 59.4581 -167.874
RightUpLeg  15.1153 -8.97384 1.15859
RightLeg  12.3982 -13.4575 3.1157
RightFoot  -16.0277 -0.0113983 2.37586
RightToes  0.00048216 0.542163 -0.142577
Spine  12.8154 0.0656385 13.7676
Spine1  13.2603 3.33648 -5.51665
HEad  10.7234 13.7692 -11.0762
LeftShoulder1  7.41182 -11.6869 -42.3808
LeftArm  -11.13 17.2178 -27.1734
LeftForeArm  31.6649 -75.2796 -46.5085
LeftHand  -0.25398 0.0180481 5.50724
RightShoulder  4.51015 8.39734 31.9544
RightArm  -4.88865 -16.9454 20.6119
RightForeArm  38.4417 77.098 105.91
RightHand  1.28539 -12.5708 -21.1777
LeftUpLeg  -17.5183 9.64416 7.86004
LeftLeg  -1.88951 28.6252 -8.3228
LeftFoot  -2.00537 0.308916 -3.7169
LeftToes  1.06246e-005 4.65855e-005 -8.18505e-006
158
root  37.7261 38.4306 5.39319 -174.564 58.5737 -166.316
RightUpLeg  18.5938 -9.32206 1.77171
RightLeg  12.972 -13.7706 2.91473
RightFoot  -18.5272 0.0719818 3.18013
RightToes  0.00048216 0.542163 -0.142577
Spine  11.8185 0.328129 14.6641
Spine1  13.6443 3.68136 -6.00321
HEad  11.6745 13.9648 -10.6797
LeftShoulder1  7.25867 -11.5565 -41.8272
LeftArm  -11.2006 17.0351 -27.2542
LeftForeArm  30.9692 -75.1133 -45.8206
LeftHand  -0.25398 0.0180481 5.50724
RightShoulder  4.63237 8.60045 32.3287
RightArm  -4.23387 -15.5682 20.8299
RightForeArm  31.393 77.4541 98.5601
RightHand  1.23651 -12.3856 -20.9482
LeftUpLeg  -17.303 8.11199 8.04814
LeftLeg  -9.74139 36.9105 -11.7882
LeftFoot  -4.38817 0.403562 -6.17098
LeftToes  1.06246e-005 4.65855e-005 -8.18505e-006
